<?xml version="1.0" encoding="UTF-8" standalone="no"?>
<svg
   xmlns:dc="http://purl.org/dc/elements/1.1/"
   xmlns:cc="http://creativecommons.org/ns#"
   xmlns:rdf="http://www.w3.org/1999/02/22-rdf-syntax-ns#"
   xmlns:svg="http://www.w3.org/2000/svg"
   xmlns="http://www.w3.org/2000/svg"
   version="1.1"
   id="svg4804"
   viewBox="0 0 140.25528 50"
   height="14.111111mm"
   width="39.583157mm">
  <defs
     id="defs4806" />
  <metadata
     id="metadata4809">
    <rdf:RDF>
      <cc:Work
         rdf:about="">
        <dc:format>image/svg+xml</dc:format>
        <dc:type
           rdf:resource="http://purl.org/dc/dcmitype/StillImage" />
        <dc:title></dc:title>
      </cc:Work>
    </rdf:RDF>
  </metadata>
  <g
     transform="translate(52.857363,-854.21269)"
     id="layer1">
    <g
       id="g4767"
       transform="matrix(0.19479891,0,0,-0.19479891,-169.73667,984.40416)">
      <g
         style="fill:#ed213a;fill-opacity:1"
         id="g20"
         transform="translate(643.2168,498.4727)">
        <path
           d="m 0,0 c -5.983,0 -11.582,1.136 -16.788,3.408 -5.211,2.27 -9.781,5.344 -13.713,9.223 -3.936,3.88 -7.038,8.45 -9.309,13.714 -2.273,5.263 -3.407,10.888 -3.407,16.872 0,5.983 1.134,11.607 3.407,16.87 2.271,5.262 5.373,9.861 9.309,13.797 3.932,3.932 8.502,7.036 13.713,9.307 5.206,2.27 10.805,3.409 16.788,3.409 4.653,0 9.196,-1.08 13.631,-3.241 4.43,-2.162 8.476,-5.071 12.132,-8.727 L 15.79,64.658 c -2.438,2.327 -4.985,4.181 -7.646,5.57 -2.659,1.383 -5.375,2.077 -8.144,2.077 -3.989,0 -7.759,-0.749 -11.303,-2.245 -3.549,-1.496 -6.623,-3.574 -9.225,-6.232 -2.605,-2.661 -4.683,-5.765 -6.235,-9.308 -1.55,-3.548 -2.327,-7.314 -2.327,-11.303 0,-3.989 0.777,-7.759 2.327,-11.303 1.552,-3.548 3.63,-6.623 6.235,-9.226 2.602,-2.604 5.676,-4.681 9.225,-6.233 3.544,-1.552 7.314,-2.328 11.303,-2.328 2.769,0 5.485,0.666 8.144,1.995 2.661,1.33 5.208,3.213 7.646,5.652 l 9.973,-9.972 C 22.107,8.144 18.061,5.262 13.631,3.157 9.196,1.054 4.653,0 0,0"
           style="fill:#ed213a;fill-opacity:1;fill-rule:nonzero;stroke:none"
           id="path22" />
      </g>
      <path
         d="m 680.615,582.744 14.295,0 0,-83.108 -14.295,0 0,83.108 z m 0,38.564 14.295,0 0,-19.28 -14.295,0 0,19.28 z"
         style="fill:#ed213a;fill-opacity:1;fill-rule:nonzero;stroke:none"
         id="path24" />
      <g
         style="fill:#ed213a;fill-opacity:1"
         id="g26"
         transform="translate(752.2539,584.5732)">
        <path
           d="m 0,0 c 5.983,0 11.607,-1.138 16.873,-3.407 5.261,-2.273 9.86,-5.347 13.796,-9.226 3.931,-3.88 7.034,-8.476 9.308,-13.796 2.269,-5.319 3.408,-10.969 3.408,-16.953 l 0,-41.556 -14.297,0 0,41.556 c 0,3.988 -0.747,7.754 -2.243,11.303 -1.495,3.544 -3.548,6.647 -6.151,9.308 -2.605,2.659 -5.679,4.736 -9.225,6.232 -3.547,1.495 -7.37,2.244 -11.469,2.244 -3.989,0 -7.757,-0.749 -11.303,-2.244 -3.548,-1.496 -6.623,-3.573 -9.225,-6.232 -2.605,-2.661 -4.682,-5.764 -6.232,-9.308 -1.553,-3.549 -2.328,-7.315 -2.328,-11.303 l 0,-41.556 -14.129,0 0,41.556 c 0,5.984 1.136,11.634 3.407,16.953 2.271,5.32 5.374,9.916 9.309,13.796 3.932,3.879 8.504,6.953 13.713,9.226 C -11.58,-1.138 -5.983,0 0,0"
           style="fill:#ed213a;fill-opacity:1;fill-rule:nonzero;stroke:none"
           id="path28" />
      </g>
      <g
         id="g30"
         transform="translate(882.2354,548.0059)">
        <path
           d="m 0,0 c -0.888,3.1 -2.188,6.009 -3.906,8.726 -1.719,2.713 -3.797,5.042 -6.234,6.982 -2.437,1.937 -5.18,3.461 -8.226,4.57 -3.05,1.108 -6.292,1.661 -9.725,1.661 -3.436,0 -6.679,-0.553 -9.723,-1.661 -3.05,-1.109 -5.791,-2.633 -8.229,-4.57 -2.439,-1.94 -4.546,-4.269 -6.316,-6.982 C -54.133,6.009 -55.407,3.1 -56.181,0 L 0,0 Z m -28.091,-50.365 c -5.983,0 -11.608,1.138 -16.872,3.408 -5.264,2.269 -9.863,5.373 -13.796,9.309 -3.935,3.93 -7.039,8.502 -9.308,13.712 -2.272,5.207 -3.408,10.804 -3.408,16.788 0,5.984 1.136,11.636 3.408,16.956 2.269,5.317 5.373,9.914 9.308,13.796 3.933,3.876 8.532,6.951 13.796,9.225 5.264,2.27 10.889,3.405 16.872,3.405 5.984,0 11.608,-1.135 16.871,-3.405 5.261,-2.274 9.834,-5.349 13.713,-9.225 3.877,-3.882 6.954,-8.479 9.226,-13.796 2.269,-5.32 3.407,-10.972 3.407,-16.956 l 0,-2.493 c 0,-0.887 -0.111,-2.383 -0.333,-4.488 l -70.974,0 c 0.774,-3.215 2.048,-6.151 3.822,-8.809 1.77,-2.662 3.877,-4.987 6.316,-6.981 2.438,-1.995 5.179,-3.549 8.229,-4.655 3.044,-1.11 6.287,-1.661 9.723,-1.661 2.659,0 5.32,0.69 7.979,2.077 2.658,1.384 5.207,3.242 7.646,5.567 l 9.973,-9.972 c -3.658,-3.548 -7.674,-6.4 -12.052,-8.56 -4.378,-2.162 -8.892,-3.242 -13.546,-3.242"
           style="fill:#ed213a;fill-opacity:1;fill-rule:nonzero;stroke:none"
           id="path32" />
      </g>
      <g
         style="fill:#ed213a;fill-opacity:1"
         id="g34"
         transform="translate(946.7275,584.5732)">
        <path
           d="m 0,0 c 5.319,0 10.223,-1.163 14.71,-3.49 4.488,-2.328 8.282,-5.486 11.386,-9.474 3.214,3.988 7.037,7.146 11.47,9.474 4.43,2.327 9.363,3.49 14.793,3.49 4.542,0 8.835,-0.888 12.882,-2.658 4.045,-1.776 7.565,-4.157 10.556,-7.149 2.992,-2.992 5.373,-6.511 7.146,-10.553 1.771,-4.047 2.661,-8.341 2.661,-12.884 l 0,-51.694 -14.296,0 0,51.694 c 0,2.66 -0.499,5.125 -1.496,7.396 -0.998,2.272 -2.355,4.267 -4.073,5.986 -1.718,1.716 -3.714,3.074 -5.983,4.072 -2.272,0.997 -4.737,1.495 -7.397,1.495 -2.66,0 -5.153,-0.498 -7.479,-1.495 -2.327,-0.998 -4.351,-2.356 -6.068,-4.072 -1.719,-1.719 -3.075,-3.714 -4.072,-5.986 -0.997,-2.271 -1.496,-4.736 -1.496,-7.396 l 0,-51.694 -14.129,0 0,51.694 c 0,2.66 -0.499,5.125 -1.496,7.396 -0.997,2.272 -2.383,4.267 -4.154,5.986 -1.776,1.716 -3.799,3.074 -6.069,4.072 -2.271,0.997 -4.735,1.495 -7.396,1.495 -2.658,0 -5.151,-0.498 -7.479,-1.495 -2.328,-0.998 -4.351,-2.356 -6.069,-4.072 -1.719,-1.719 -3.074,-3.714 -4.071,-5.986 -0.997,-2.271 -1.496,-4.736 -1.496,-7.396 l 0,-51.694 -14.129,0 0,51.694 c 0,4.543 0.886,8.837 2.66,12.884 1.772,4.042 4.155,7.561 7.147,10.553 2.992,2.992 6.508,5.373 10.555,7.149 C -8.839,-0.888 -4.546,0 0,0"
           style="fill:#ed213a;fill-opacity:1;fill-rule:nonzero;stroke:none"
           id="path36" />
      </g>
      <g
         style="fill:#ed213a;fill-opacity:1"
         id="g38"
         transform="translate(1091.0059,570.4443)">
        <path
           d="m 0,0 c -3.989,0 -7.759,-0.747 -11.303,-2.243 -3.549,-1.495 -6.623,-3.575 -9.225,-6.234 -2.606,-2.659 -4.683,-5.762 -6.235,-9.308 -1.551,-3.548 -2.327,-7.314 -2.327,-11.303 0,-3.989 0.776,-7.759 2.327,-11.303 1.552,-3.547 3.629,-6.623 6.235,-9.225 2.602,-2.605 5.676,-4.682 9.225,-6.234 3.544,-1.551 7.314,-2.326 11.303,-2.326 4.099,0 7.92,0.775 11.468,2.326 3.547,1.552 6.621,3.629 9.225,6.234 2.604,2.602 4.654,5.678 6.15,9.225 1.498,3.544 2.245,7.314 2.245,11.303 0,3.989 -0.747,7.755 -2.245,11.303 -1.496,3.546 -3.546,6.649 -6.15,9.308 -2.604,2.659 -5.678,4.739 -9.225,6.234 C 7.92,-0.747 4.099,0 0,0 m 0,14.295 c 5.983,0 11.634,-1.137 16.953,-3.406 5.319,-2.274 9.945,-5.377 13.881,-9.308 3.931,-3.935 7.034,-8.535 9.308,-13.799 2.27,-5.262 3.408,-10.886 3.408,-16.87 l 0,-41.556 -14.462,0 0,9.309 C 25.208,-64.77 20.804,-67.459 15.873,-69.396 10.94,-71.334 5.65,-72.305 0,-72.305 c -5.983,0 -11.582,1.138 -16.788,3.408 -5.212,2.27 -9.782,5.344 -13.713,9.225 -3.936,3.878 -7.039,8.448 -9.309,13.714 -2.273,5.261 -3.407,10.887 -3.407,16.87 0,5.984 1.134,11.608 3.407,16.87 2.27,5.264 5.373,9.864 9.309,13.799 3.931,3.931 8.501,7.034 13.713,9.308 5.206,2.269 10.805,3.406 16.788,3.406"
           style="fill:#ed213a;fill-opacity:1;fill-rule:nonzero;stroke:none"
           id="path40" />
      </g>
      <g
         style="fill:#ed213a;fill-opacity:1"
         id="g42"
         transform="translate(1187.5098,532.6973)">
        <path
           d="m 0,0 c -1.257,-1.407 -2.478,-2.875 -3.658,-4.41 -9.78,-12.702 -14.424,-28.593 -13.45,-45.96 1.121,-19.97 9.95,-38.303 24.859,-51.623 14.911,-13.325 34.121,-20.045 54.085,-18.92 41.214,2.314 72.859,37.729 70.534,78.935 -1.143,20.488 -10.808,39.825 -26.499,53.057 L 93.122,-4.043 c 11.721,-9.879 18.649,-23.743 19.509,-39.041 1.707,-30.323 -21.577,-56.382 -51.906,-58.087 -14.69,-0.828 -28.822,4.117 -39.793,13.926 -10.973,9.803 -17.472,23.289 -18.297,37.982 -0.707,12.561 2.538,23.903 9.379,32.795 11.543,15.01 29.319,22.558 48.128,30.558 9.304,3.956 18.921,8.049 27.872,13.152 l -0.039,0.072 c 20.404,11.673 30.519,29.652 29.262,51.995 -1.847,32.858 -30.08,58.085 -62.932,56.236 C 37.875,134.627 23.357,127.102 13.17,115.705 2.99,104.311 -2.852,89.042 -1.932,72.613 -1.012,56.285 6.688,40.869 19.194,30.325 l 12.75,15.124 C 23.457,52.599 18.441,62.646 17.817,73.721 16.58,95.689 33.445,114.563 55.42,115.802 77.38,117.038 96.259,100.171 97.488,78.199 98.326,63.401 91.981,52.354 78.072,44.425 l 0.036,-0.059 C 70.187,39.86 61.544,36.178 52.402,32.293 33.699,24.332 14.417,16.134 0,0"
           style="fill:#ed213a;fill-opacity:1;fill-rule:nonzero;stroke:none"
           id="path44" />
      </g>
    </g>
  </g>
</svg>
